<svg width="1920" height="1188" viewBox="0 0 1920 1188" fill="none" xmlns="http://www.w3.org/2000/svg">
<path d="M266.162 610.039L263.428 1049.58L-118.591 832.176L266.162 610.039Z" stroke="#EBEBEB"/>
<ellipse cx="281.027" cy="1047.7" rx="4.04675" ry="3.98926" transform="rotate(-30 281.027 1047.7)" fill="#F2F2F2"/>
<ellipse cx="283.891" cy="607.518" rx="4.04675" ry="3.98926" transform="rotate(-30 283.891 607.518)" fill="#F2F2F2"/>
<path d="M323.594 75.3811L323.594 331.777L101.549 203.579L323.594 75.3811Z" stroke="#EBEBEB"/>
<path d="M1668.56 643.777L1668.56 387.381L1890.61 515.579L1668.56 643.777Z" stroke="#EBEBEB"/>
<path d="M1355.62 434.625L879.874 709.299L879.874 159.95L1355.62 434.625Z" stroke="#EBEBEB"/>
<circle cx="879.74" cy="159.198" r="5" transform="rotate(30 879.74 159.198)" fill="#F2F2F2"/>
<circle cx="879.897" cy="708.926" r="5" transform="rotate(30 879.897 708.926)" fill="#F2F2F2"/>
<circle cx="1356.05" cy="434.198" r="5" transform="rotate(30 1356.05 434.198)" fill="#F2F2F2"/>
</svg>
