<svg width="1920" height="1188" viewBox="0 0 1920 1188" fill="none" xmlns="http://www.w3.org/2000/svg"><path d="M266.162 610.039l-2.734 439.541-382.019-217.404 384.753-222.137z" stroke="#EBEBEB"/><ellipse cx="281.027" cy="1047.7" rx="4.047" ry="3.989" transform="rotate(-30 281.027 1047.7)" fill="#F2F2F2"/><ellipse cx="283.891" cy="607.518" rx="4.047" ry="3.989" transform="rotate(-30 283.891 607.518)" fill="#F2F2F2"/><path d="M323.594 75.381v256.396L101.549 203.579 323.594 75.381zM1668.56 643.777V387.381l222.05 128.198-222.05 128.198zm-312.94-209.152L879.874 709.299V159.95l475.746 274.675z" stroke="#EBEBEB"/><circle cx="879.74" cy="159.198" r="5" transform="rotate(30 879.74 159.198)" fill="#F2F2F2"/><circle cx="879.897" cy="708.926" r="5" transform="rotate(30 879.897 708.926)" fill="#F2F2F2"/><circle cx="1356.05" cy="434.198" r="5" transform="rotate(30 1356.05 434.198)" fill="#F2F2F2"/></svg>